<svg xmlns="http://www.w3.org/2000/svg" width="370" height="73" viewBox="0 0 370 73">
  <defs>
    <style>
      .cls-1 {
        fill-rule: evenodd;
      }
    </style>
  </defs>
  <path id="JUAN_GPAHICO" data-name="JUAN GPAHICO" class="cls-1" d="M17.35,18.3V45.8a3.947,3.947,0,0,1-1.65,3.4,7.568,7.568,0,0,1-4.15,1,11.61,11.61,0,0,1-2.175-.225,22.025,22.025,0,0,1-2.25-.55,20.653,20.653,0,0,1-1.975-.7A7.567,7.567,0,0,1,3.75,48l-2.5,3.95A11.406,11.406,0,0,0,3.675,53.3a28.017,28.017,0,0,0,2.95,1.05,22.928,22.928,0,0,0,2.975.675,16.64,16.64,0,0,0,2.5.225,20.314,20.314,0,0,0,4.175-.425,10.183,10.183,0,0,0,3.6-1.475,7.583,7.583,0,0,0,2.5-2.775A8.965,8.965,0,0,0,23.3,46.3v-28H17.35ZM37.55,19H31.6V36.85a28.993,28.993,0,0,0,.925,7.7,17.648,17.648,0,0,0,2.6,5.675A11.574,11.574,0,0,0,39.2,53.8a13.5,13.5,0,0,0,5.4,1.45V50.4a6.452,6.452,0,0,1-2.9-.975,6.7,6.7,0,0,1-2.225-2.5,14.561,14.561,0,0,1-1.425-4.3,34.665,34.665,0,0,1-.5-6.375V19Zm16.1,0V36.25a35.064,35.064,0,0,1-.5,6.425,14.265,14.265,0,0,1-1.425,4.275A6.538,6.538,0,0,1,49.5,49.4a7.149,7.149,0,0,1-2.9,1v4.85a13.413,13.413,0,0,0,5.35-1.45,11.8,11.8,0,0,0,4.1-3.575,17.364,17.364,0,0,0,2.625-5.675,29.026,29.026,0,0,0,.925-7.7V19H53.65ZM85.1,19.05H79.25L66.7,55h6.1l9.4-26.95L91.55,55H97.6Zm-6.2,24.5-1.4,4h9.35l-1.4-4H78.9Zm46.35,0.25-12.1-21.3V33.7L125.25,55h5.95V19h-5.95V43.8ZM111.15,55V19H105.2V55h5.95Zm66.8-32.65a13.3,13.3,0,0,0-4.525-2.925,15.076,15.076,0,0,0-5.475-.975H167.9v4.8h0.2a7.911,7.911,0,0,1,3.125.65,7.012,7.012,0,0,1,2.675,2.05ZM153.925,44.3a17.255,17.255,0,0,0,2.7,5.525,13.453,13.453,0,0,0,4.1,3.625,13.823,13.823,0,0,0,5.175,1.7V50.7a7.278,7.278,0,0,1-2.7-1.425,9.272,9.272,0,0,1-2.2-2.75,15.857,15.857,0,0,1-1.5-4.125,26.894,26.894,0,0,1-.6-5.55,26,26,0,0,1,.6-5.525,14.327,14.327,0,0,1,1.5-3.95,8.351,8.351,0,0,1,2.2-2.55,8.163,8.163,0,0,1,2.7-1.325V18.6a14.118,14.118,0,0,0-5.175,1.675,13.166,13.166,0,0,0-4.1,3.6,17.271,17.271,0,0,0-2.7,5.525,25.959,25.959,0,0,0-.975,7.45A25.955,25.955,0,0,0,153.925,44.3ZM167.9,36.45v4H174v8.9a2.713,2.713,0,0,1-1.2.8,10.583,10.583,0,0,1-1.7.475,16.884,16.884,0,0,1-1.75.25q-0.851.075-1.45,0.075v4.3h0.05A21.716,21.716,0,0,0,171.2,55a15.565,15.565,0,0,0,3.175-.825,14.688,14.688,0,0,0,2.925-1.5,10.63,10.63,0,0,0,2.5-2.325V36.45H167.9ZM188.25,55h5.85V19h-5.85V55Zm7.85-36v4.45h2.4a8.024,8.024,0,0,1,3.625.7,5.758,5.758,0,0,1,2.125,1.75,5.946,5.946,0,0,1,1,2.2,9.818,9.818,0,0,1,.25,2.05,10.618,10.618,0,0,1-.55,3.675,6.212,6.212,0,0,1-1.425,2.325,5,5,0,0,1-1.95,1.2,6.829,6.829,0,0,1-2.125.35H196.1V42h2.35a15.393,15.393,0,0,0,5.175-.825,11.642,11.642,0,0,0,4-2.35,10.433,10.433,0,0,0,2.6-3.725,12.67,12.67,0,0,0,.925-4.95,9.831,9.831,0,0,0-1.1-4.675,11.409,11.409,0,0,0-2.875-3.525,12.61,12.61,0,0,0-4.025-2.2A14.306,14.306,0,0,0,198.6,19h-2.5Zm38.75,0.05H229L216.45,55h6.1l9.4-26.95L241.3,55h6.05Zm-6.2,24.5-1.4,4h9.35l-1.4-4h-6.55ZM276.55,19V34.8H263v4h13.55V55h5.9V19h-5.9Zm-21.5,36H261V19h-5.95V55ZM297.6,19h-5.95V55h5.95V19Zm33.35,3.35a13.553,13.553,0,0,0-9.15-3.85v4.8a7.019,7.019,0,0,1,2.725.75,8.086,8.086,0,0,1,2.375,1.9Zm-9.15,32.9a14.821,14.821,0,0,0,5-1.125,13.442,13.442,0,0,0,4.15-2.775l-4.05-3.6a7.085,7.085,0,0,1-2.35,1.875,8.254,8.254,0,0,1-2.75.775v4.85ZM307,44.525a17.053,17.053,0,0,0,2.9,5.625,13.211,13.211,0,0,0,4.375,3.575A14.226,14.226,0,0,0,319.8,55.2V50.4a7.491,7.491,0,0,1-3.025-1.075,8.023,8.023,0,0,1-2.5-2.525,13.648,13.648,0,0,1-1.7-4.1,25.688,25.688,0,0,1,0-11.7,13.317,13.317,0,0,1,1.7-4.075,7.854,7.854,0,0,1,2.5-2.475,8.4,8.4,0,0,1,3.025-1.1V18.5a14.226,14.226,0,0,0-5.525,1.475A13.221,13.221,0,0,0,309.9,23.55a17.069,17.069,0,0,0-2.9,5.625,25.513,25.513,0,0,0-1.05,7.675A25.51,25.51,0,0,0,307,44.525Zm32.7,0.025a17.061,17.061,0,0,0,2.925,5.675,12.912,12.912,0,0,0,4.45,3.575,14.907,14.907,0,0,0,5.575,1.45V50.4a7.312,7.312,0,0,1-3.05-1,7.89,7.89,0,0,1-2.55-2.5,13.641,13.641,0,0,1-1.75-4.125,25.425,25.425,0,0,1,0-11.85,13.724,13.724,0,0,1,1.725-4.1,7.5,7.5,0,0,1,2.525-2.45,8.206,8.206,0,0,1,3.1-1.025V18.5a14.266,14.266,0,0,0-5.575,1.4,12.921,12.921,0,0,0-4.45,3.575A17.069,17.069,0,0,0,339.7,29.15a25.761,25.761,0,0,0-1.05,7.7A25.757,25.757,0,0,0,339.7,44.55ZM354.65,23.3a7.332,7.332,0,0,1,3.05,1,7.918,7.918,0,0,1,2.55,2.5A13.692,13.692,0,0,1,362,30.925a25.425,25.425,0,0,1,0,11.85,13.767,13.767,0,0,1-1.725,4.1,7.755,7.755,0,0,1-2.525,2.475,7.948,7.948,0,0,1-3.1,1.05v4.85a14.7,14.7,0,0,0,5.55-1.45,12.987,12.987,0,0,0,4.425-3.575,17.417,17.417,0,0,0,2.95-5.675,25.22,25.22,0,0,0,1.075-7.7,25.223,25.223,0,0,0-1.075-7.7,17.425,17.425,0,0,0-2.95-5.675A13,13,0,0,0,360.2,19.9a14.075,14.075,0,0,0-5.55-1.4v4.8Z"/>
</svg>
